<mxfile host="Electron" agent="Mozilla/5.0 (Windows NT 10.0; Win64; x64) AppleWebKit/537.36 (KHTML, like Gecko) draw.io/24.7.17 Chrome/128.0.6613.36 Electron/32.0.1 Safari/537.36" version="24.7.17">
  <diagram name="Page-1" id="3XOxG6FMkao1AMan2YhP">
    <mxGraphModel dx="2268" dy="1968" grid="1" gridSize="10" guides="1" tooltips="1" connect="1" arrows="1" fold="1" page="1" pageScale="1" pageWidth="850" pageHeight="1100" math="0" shadow="0">
      <root>
        <mxCell id="0" />
        <mxCell id="1" parent="0" />
        <mxCell id="oJl91GnHJdicE9mI5OMN-5" value="&lt;u&gt;Irányítószám&lt;/u&gt;" style="ellipse;whiteSpace=wrap;html=1;" parent="1" vertex="1">
          <mxGeometry x="240" y="-100" width="80" height="60" as="geometry" />
        </mxCell>
        <mxCell id="oJl91GnHJdicE9mI5OMN-7" value="Város" style="rounded=0;whiteSpace=wrap;html=1;strokeColor=default;align=center;verticalAlign=middle;fontFamily=Helvetica;fontSize=12;fontColor=default;fillColor=default;" parent="1" vertex="1">
          <mxGeometry x="360" y="40" width="120" height="40" as="geometry" />
        </mxCell>
        <mxCell id="oJl91GnHJdicE9mI5OMN-8" value="Lakosság" style="ellipse;whiteSpace=wrap;html=1;" parent="1" vertex="1">
          <mxGeometry x="510" y="-100" width="80" height="60" as="geometry" />
        </mxCell>
        <mxCell id="oJl91GnHJdicE9mI5OMN-9" value="Terület" style="ellipse;whiteSpace=wrap;html=1;" parent="1" vertex="1">
          <mxGeometry x="420" y="-100" width="80" height="60" as="geometry" />
        </mxCell>
        <mxCell id="oJl91GnHJdicE9mI5OMN-10" value="Név" style="ellipse;whiteSpace=wrap;html=1;" parent="1" vertex="1">
          <mxGeometry x="330" y="-100" width="80" height="60" as="geometry" />
        </mxCell>
        <mxCell id="oJl91GnHJdicE9mI5OMN-11" value="" style="endArrow=none;html=1;rounded=0;exitX=0.5;exitY=1;exitDx=0;exitDy=0;entryX=0.5;entryY=0;entryDx=0;entryDy=0;" parent="1" source="oJl91GnHJdicE9mI5OMN-5" target="oJl91GnHJdicE9mI5OMN-7" edge="1">
          <mxGeometry width="50" height="50" relative="1" as="geometry">
            <mxPoint x="400" y="470" as="sourcePoint" />
            <mxPoint x="450" y="420" as="targetPoint" />
          </mxGeometry>
        </mxCell>
        <mxCell id="oJl91GnHJdicE9mI5OMN-12" value="" style="endArrow=none;html=1;rounded=0;exitX=0.5;exitY=1;exitDx=0;exitDy=0;entryX=0.5;entryY=0;entryDx=0;entryDy=0;endFill=0;startArrow=none;startFill=0;" parent="1" source="oJl91GnHJdicE9mI5OMN-10" target="oJl91GnHJdicE9mI5OMN-7" edge="1">
          <mxGeometry width="50" height="50" relative="1" as="geometry">
            <mxPoint x="310" y="60" as="sourcePoint" />
            <mxPoint x="375" y="60" as="targetPoint" />
          </mxGeometry>
        </mxCell>
        <mxCell id="oJl91GnHJdicE9mI5OMN-13" value="" style="endArrow=none;html=1;rounded=0;exitX=0.5;exitY=0;exitDx=0;exitDy=0;entryX=0.5;entryY=1;entryDx=0;entryDy=0;" parent="1" source="oJl91GnHJdicE9mI5OMN-7" target="oJl91GnHJdicE9mI5OMN-8" edge="1">
          <mxGeometry width="50" height="50" relative="1" as="geometry">
            <mxPoint x="310" y="130" as="sourcePoint" />
            <mxPoint x="375" y="60" as="targetPoint" />
          </mxGeometry>
        </mxCell>
        <mxCell id="oJl91GnHJdicE9mI5OMN-14" value="" style="endArrow=none;html=1;rounded=0;entryX=0.5;entryY=1;entryDx=0;entryDy=0;exitX=0.5;exitY=0;exitDx=0;exitDy=0;" parent="1" source="oJl91GnHJdicE9mI5OMN-7" target="oJl91GnHJdicE9mI5OMN-9" edge="1">
          <mxGeometry width="50" height="50" relative="1" as="geometry">
            <mxPoint x="495" y="60" as="sourcePoint" />
            <mxPoint x="560" y="60" as="targetPoint" />
          </mxGeometry>
        </mxCell>
        <mxCell id="oJl91GnHJdicE9mI5OMN-15" value="tartalmaz" style="rhombus;whiteSpace=wrap;html=1;strokeColor=default;align=center;verticalAlign=middle;fontFamily=Helvetica;fontSize=12;fontColor=default;fillColor=default;" parent="1" vertex="1">
          <mxGeometry x="360" y="170" width="120" height="60" as="geometry" />
        </mxCell>
        <mxCell id="oJl91GnHJdicE9mI5OMN-17" value="" style="endArrow=classic;html=1;rounded=0;entryX=0.5;entryY=1;entryDx=0;entryDy=0;exitX=0.5;exitY=0;exitDx=0;exitDy=0;" parent="1" source="oJl91GnHJdicE9mI5OMN-15" target="oJl91GnHJdicE9mI5OMN-7" edge="1">
          <mxGeometry width="50" height="50" relative="1" as="geometry">
            <mxPoint x="400" y="470" as="sourcePoint" />
            <mxPoint x="450" y="420" as="targetPoint" />
          </mxGeometry>
        </mxCell>
        <mxCell id="oJl91GnHJdicE9mI5OMN-19" value="" style="endArrow=classic;html=1;rounded=0;exitX=0.5;exitY=1;exitDx=0;exitDy=0;entryX=0.5;entryY=0;entryDx=0;entryDy=0;" parent="1" source="oJl91GnHJdicE9mI5OMN-15" target="t7DiXKhFXk8-TvQDCCYp-13" edge="1">
          <mxGeometry width="50" height="50" relative="1" as="geometry">
            <mxPoint x="436" y="150" as="sourcePoint" />
            <mxPoint x="420" y="320" as="targetPoint" />
          </mxGeometry>
        </mxCell>
        <mxCell id="oJl91GnHJdicE9mI5OMN-90" style="rounded=0;orthogonalLoop=1;jettySize=auto;html=1;exitX=0.5;exitY=1;exitDx=0;exitDy=0;entryX=0.5;entryY=0;entryDx=0;entryDy=0;endArrow=doubleBlock;endFill=1;" parent="1" source="t7DiXKhFXk8-TvQDCCYp-17" target="t7DiXKhFXk8-TvQDCCYp-20" edge="1">
          <mxGeometry relative="1" as="geometry">
            <mxPoint x="819.9999999999995" y="485" as="sourcePoint" />
            <mxPoint x="880" y="600" as="targetPoint" />
          </mxGeometry>
        </mxCell>
        <mxCell id="oJl91GnHJdicE9mI5OMN-92" style="rounded=0;orthogonalLoop=1;jettySize=auto;html=1;exitX=1;exitY=0.5;exitDx=0;exitDy=0;entryX=0;entryY=0.5;entryDx=0;entryDy=0;endArrow=none;endFill=0;" parent="1" source="t7DiXKhFXk8-TvQDCCYp-16" target="oJl91GnHJdicE9mI5OMN-73" edge="1">
          <mxGeometry relative="1" as="geometry">
            <mxPoint x="860" y="340" as="sourcePoint" />
          </mxGeometry>
        </mxCell>
        <mxCell id="oJl91GnHJdicE9mI5OMN-94" style="rounded=0;orthogonalLoop=1;jettySize=auto;html=1;exitX=1;exitY=0.5;exitDx=0;exitDy=0;entryX=0;entryY=0.5;entryDx=0;entryDy=0;endArrow=none;endFill=0;" parent="1" source="t7DiXKhFXk8-TvQDCCYp-16" target="oJl91GnHJdicE9mI5OMN-70" edge="1">
          <mxGeometry relative="1" as="geometry">
            <mxPoint x="980" y="340" as="sourcePoint" />
          </mxGeometry>
        </mxCell>
        <mxCell id="oJl91GnHJdicE9mI5OMN-95" style="rounded=0;orthogonalLoop=1;jettySize=auto;html=1;exitX=1;exitY=0.5;exitDx=0;exitDy=0;entryX=0;entryY=0.5;entryDx=0;entryDy=0;endArrow=none;endFill=0;startArrow=none;startFill=0;" parent="1" source="t7DiXKhFXk8-TvQDCCYp-16" target="oJl91GnHJdicE9mI5OMN-71" edge="1">
          <mxGeometry relative="1" as="geometry">
            <mxPoint x="980" y="340" as="sourcePoint" />
          </mxGeometry>
        </mxCell>
        <mxCell id="oJl91GnHJdicE9mI5OMN-33" value="" style="endArrow=doubleBlock;html=1;rounded=0;entryX=0.5;entryY=0;entryDx=0;entryDy=0;exitX=0.5;exitY=1;exitDx=0;exitDy=0;endFill=1;" parent="1" source="t7DiXKhFXk8-TvQDCCYp-18" target="t7DiXKhFXk8-TvQDCCYp-16" edge="1">
          <mxGeometry width="50" height="50" relative="1" as="geometry">
            <mxPoint x="973.75" y="-45" as="sourcePoint" />
            <mxPoint x="920" y="370" as="targetPoint" />
          </mxGeometry>
        </mxCell>
        <mxCell id="oJl91GnHJdicE9mI5OMN-34" value="" style="endArrow=doubleBlock;html=1;rounded=0;entryX=0.5;entryY=1;entryDx=0;entryDy=0;exitX=0.5;exitY=0;exitDx=0;exitDy=0;endFill=1;" parent="1" source="t7DiXKhFXk8-TvQDCCYp-17" target="t7DiXKhFXk8-TvQDCCYp-16" edge="1">
          <mxGeometry width="50" height="50" relative="1" as="geometry">
            <mxPoint x="819.9999999999995" y="415" as="sourcePoint" />
            <mxPoint x="920" y="370" as="targetPoint" />
          </mxGeometry>
        </mxCell>
        <mxCell id="oJl91GnHJdicE9mI5OMN-35" value="Név" style="ellipse;whiteSpace=wrap;html=1;" parent="1" vertex="1">
          <mxGeometry x="-200" y="170" width="80" height="60" as="geometry" />
        </mxCell>
        <mxCell id="oJl91GnHJdicE9mI5OMN-36" value="&lt;u&gt;Személyi szám&lt;/u&gt;" style="ellipse;whiteSpace=wrap;html=1;" parent="1" vertex="1">
          <mxGeometry x="-200" y="520" width="80" height="60" as="geometry" />
        </mxCell>
        <mxCell id="oJl91GnHJdicE9mI5OMN-52" style="rounded=0;orthogonalLoop=1;jettySize=auto;html=1;entryX=0.5;entryY=1;entryDx=0;entryDy=0;endArrow=none;endFill=0;exitX=0.5;exitY=0;exitDx=0;exitDy=0;" parent="1" source="oJl91GnHJdicE9mI5OMN-38" target="t7DiXKhFXk8-TvQDCCYp-13" edge="1">
          <mxGeometry relative="1" as="geometry">
            <mxPoint x="360" y="350" as="targetPoint" />
          </mxGeometry>
        </mxCell>
        <mxCell id="oJl91GnHJdicE9mI5OMN-38" value="&lt;div&gt;&lt;u&gt;Nyilántartási&lt;/u&gt;&lt;/div&gt;&lt;div&gt;&lt;u&gt;ayonosító&lt;br&gt;&lt;/u&gt;&lt;/div&gt;" style="ellipse;whiteSpace=wrap;html=1;" parent="1" vertex="1">
          <mxGeometry x="200" y="440" width="80" height="60" as="geometry" />
        </mxCell>
        <mxCell id="oJl91GnHJdicE9mI5OMN-39" value="Cím" style="ellipse;whiteSpace=wrap;html=1;" parent="1" vertex="1">
          <mxGeometry x="380" y="440" width="80" height="60" as="geometry" />
        </mxCell>
        <mxCell id="oJl91GnHJdicE9mI5OMN-40" value="Utca" style="ellipse;whiteSpace=wrap;html=1;" parent="1" vertex="1">
          <mxGeometry x="380" y="560" width="80" height="60" as="geometry" />
        </mxCell>
        <mxCell id="oJl91GnHJdicE9mI5OMN-41" value="Házszám" style="ellipse;whiteSpace=wrap;html=1;" parent="1" vertex="1">
          <mxGeometry x="470" y="560" width="80" height="60" as="geometry" />
        </mxCell>
        <mxCell id="oJl91GnHJdicE9mI5OMN-42" value="Férőhely" style="ellipse;whiteSpace=wrap;html=1;" parent="1" vertex="1">
          <mxGeometry x="470" y="440" width="80" height="60" as="geometry" />
        </mxCell>
        <mxCell id="oJl91GnHJdicE9mI5OMN-43" value="Név" style="ellipse;whiteSpace=wrap;html=1;" parent="1" vertex="1">
          <mxGeometry x="290" y="440" width="80" height="60" as="geometry" />
        </mxCell>
        <mxCell id="oJl91GnHJdicE9mI5OMN-45" value="Nem" style="ellipse;whiteSpace=wrap;html=1;" parent="1" vertex="1">
          <mxGeometry x="-200" y="240" width="80" height="60" as="geometry" />
        </mxCell>
        <mxCell id="oJl91GnHJdicE9mI5OMN-46" value="Szül. idő" style="ellipse;whiteSpace=wrap;html=1;" parent="1" vertex="1">
          <mxGeometry x="-200" y="450" width="80" height="60" as="geometry" />
        </mxCell>
        <mxCell id="oJl91GnHJdicE9mI5OMN-49" value="" style="endArrow=none;html=1;rounded=0;exitX=1;exitY=0.5;exitDx=0;exitDy=0;entryX=0;entryY=0.5;entryDx=0;entryDy=0;" parent="1" source="oJl91GnHJdicE9mI5OMN-61" target="t7DiXKhFXk8-TvQDCCYp-14" edge="1">
          <mxGeometry width="50" height="50" relative="1" as="geometry">
            <mxPoint x="180" y="590" as="sourcePoint" />
            <mxPoint x="10" y="365" as="targetPoint" />
          </mxGeometry>
        </mxCell>
        <mxCell id="oJl91GnHJdicE9mI5OMN-53" style="rounded=0;orthogonalLoop=1;jettySize=auto;html=1;entryX=0.5;entryY=1;entryDx=0;entryDy=0;endArrow=none;endFill=0;exitX=0.5;exitY=0;exitDx=0;exitDy=0;startArrow=none;startFill=0;" parent="1" source="oJl91GnHJdicE9mI5OMN-43" target="t7DiXKhFXk8-TvQDCCYp-13" edge="1">
          <mxGeometry relative="1" as="geometry">
            <mxPoint x="247" y="241" as="sourcePoint" />
            <mxPoint x="360" y="350" as="targetPoint" />
          </mxGeometry>
        </mxCell>
        <mxCell id="oJl91GnHJdicE9mI5OMN-54" style="rounded=0;orthogonalLoop=1;jettySize=auto;html=1;entryX=0.5;entryY=0;entryDx=0;entryDy=0;endArrow=none;endFill=0;exitX=0.5;exitY=1;exitDx=0;exitDy=0;" parent="1" source="t7DiXKhFXk8-TvQDCCYp-13" target="oJl91GnHJdicE9mI5OMN-39" edge="1">
          <mxGeometry relative="1" as="geometry">
            <mxPoint x="480" y="350" as="sourcePoint" />
            <mxPoint x="385" y="290" as="targetPoint" />
          </mxGeometry>
        </mxCell>
        <mxCell id="oJl91GnHJdicE9mI5OMN-55" style="rounded=0;orthogonalLoop=1;jettySize=auto;html=1;entryX=0.5;entryY=1;entryDx=0;entryDy=0;endArrow=none;endFill=0;exitX=0.5;exitY=0;exitDx=0;exitDy=0;" parent="1" source="oJl91GnHJdicE9mI5OMN-42" target="t7DiXKhFXk8-TvQDCCYp-13" edge="1">
          <mxGeometry relative="1" as="geometry">
            <mxPoint x="267" y="261" as="sourcePoint" />
            <mxPoint x="480" y="350" as="targetPoint" />
          </mxGeometry>
        </mxCell>
        <mxCell id="t7DiXKhFXk8-TvQDCCYp-29" style="rounded=0;orthogonalLoop=1;jettySize=auto;html=1;exitX=0.5;exitY=0;exitDx=0;exitDy=0;entryX=0.5;entryY=1;entryDx=0;entryDy=0;endArrow=none;endFill=0;" parent="1" source="oJl91GnHJdicE9mI5OMN-58" target="oJl91GnHJdicE9mI5OMN-39" edge="1">
          <mxGeometry relative="1" as="geometry" />
        </mxCell>
        <mxCell id="oJl91GnHJdicE9mI5OMN-58" value="&lt;u&gt;Irányító szám&lt;/u&gt;" style="ellipse;whiteSpace=wrap;html=1;" parent="1" vertex="1">
          <mxGeometry x="290" y="560" width="80" height="60" as="geometry" />
        </mxCell>
        <mxCell id="oJl91GnHJdicE9mI5OMN-61" value="Lakcím" style="ellipse;whiteSpace=wrap;html=1;" parent="1" vertex="1">
          <mxGeometry x="-200" y="310" width="80" height="60" as="geometry" />
        </mxCell>
        <mxCell id="oJl91GnHJdicE9mI5OMN-62" value="Utca" style="ellipse;whiteSpace=wrap;html=1;" parent="1" vertex="1">
          <mxGeometry x="-360" y="310" width="80" height="60" as="geometry" />
        </mxCell>
        <mxCell id="oJl91GnHJdicE9mI5OMN-63" value="Házszám" style="ellipse;whiteSpace=wrap;html=1;" parent="1" vertex="1">
          <mxGeometry x="-360" y="380" width="80" height="60" as="geometry" />
        </mxCell>
        <mxCell id="oJl91GnHJdicE9mI5OMN-64" style="rounded=0;orthogonalLoop=1;jettySize=auto;html=1;entryX=1;entryY=0.5;entryDx=0;entryDy=0;endArrow=none;endFill=0;exitX=0;exitY=0.5;exitDx=0;exitDy=0;" parent="1" source="oJl91GnHJdicE9mI5OMN-61" target="oJl91GnHJdicE9mI5OMN-62" edge="1">
          <mxGeometry relative="1" as="geometry">
            <mxPoint x="-790.5" y="601" as="sourcePoint" />
            <mxPoint x="-662.5" y="640" as="targetPoint" />
          </mxGeometry>
        </mxCell>
        <mxCell id="oJl91GnHJdicE9mI5OMN-65" style="rounded=0;orthogonalLoop=1;jettySize=auto;html=1;entryX=1;entryY=0.5;entryDx=0;entryDy=0;endArrow=none;endFill=0;exitX=0;exitY=0.5;exitDx=0;exitDy=0;" parent="1" source="oJl91GnHJdicE9mI5OMN-61" target="oJl91GnHJdicE9mI5OMN-63" edge="1">
          <mxGeometry relative="1" as="geometry">
            <mxPoint x="-780.5" y="611" as="sourcePoint" />
            <mxPoint x="-652.5" y="650" as="targetPoint" />
          </mxGeometry>
        </mxCell>
        <mxCell id="oJl91GnHJdicE9mI5OMN-66" value="&lt;u&gt;Irányító szám&lt;/u&gt;" style="ellipse;whiteSpace=wrap;html=1;" parent="1" vertex="1">
          <mxGeometry x="-360" y="240" width="80" height="60" as="geometry" />
        </mxCell>
        <mxCell id="oJl91GnHJdicE9mI5OMN-67" style="rounded=0;orthogonalLoop=1;jettySize=auto;html=1;entryX=0;entryY=0.5;entryDx=0;entryDy=0;endArrow=none;endFill=0;exitX=1;exitY=0.5;exitDx=0;exitDy=0;" parent="1" source="oJl91GnHJdicE9mI5OMN-66" target="oJl91GnHJdicE9mI5OMN-61" edge="1">
          <mxGeometry relative="1" as="geometry">
            <mxPoint x="-817.5" y="630" as="sourcePoint" />
            <mxPoint x="-692.5" y="610" as="targetPoint" />
          </mxGeometry>
        </mxCell>
        <mxCell id="oJl91GnHJdicE9mI5OMN-68" value="Édesanyja leánykori &lt;br&gt;neve" style="ellipse;whiteSpace=wrap;html=1;" parent="1" vertex="1">
          <mxGeometry x="-200" y="590" width="80" height="60" as="geometry" />
        </mxCell>
        <mxCell id="oJl91GnHJdicE9mI5OMN-70" value="&lt;u&gt;Azonosító kód&lt;br&gt;&lt;/u&gt;" style="ellipse;whiteSpace=wrap;html=1;" parent="1" vertex="1">
          <mxGeometry x="960" y="200" width="80" height="60" as="geometry" />
        </mxCell>
        <mxCell id="oJl91GnHJdicE9mI5OMN-71" value="Név" style="ellipse;whiteSpace=wrap;html=1;" parent="1" vertex="1">
          <mxGeometry x="960" y="270" width="80" height="60" as="geometry" />
        </mxCell>
        <mxCell id="oJl91GnHJdicE9mI5OMN-93" style="rounded=0;orthogonalLoop=1;jettySize=auto;html=1;exitX=0;exitY=0.5;exitDx=0;exitDy=0;entryX=1;entryY=0.5;entryDx=0;entryDy=0;endArrow=none;endFill=0;" parent="1" source="oJl91GnHJdicE9mI5OMN-72" target="t7DiXKhFXk8-TvQDCCYp-16" edge="1">
          <mxGeometry relative="1" as="geometry">
            <mxPoint x="860" y="340" as="targetPoint" />
          </mxGeometry>
        </mxCell>
        <mxCell id="oJl91GnHJdicE9mI5OMN-72" value="Faj" style="ellipse;whiteSpace=wrap;html=1;" parent="1" vertex="1">
          <mxGeometry x="960" y="420" width="80" height="60" as="geometry" />
        </mxCell>
        <mxCell id="oJl91GnHJdicE9mI5OMN-73" value="Életkor" style="ellipse;whiteSpace=wrap;html=1;" parent="1" vertex="1">
          <mxGeometry x="960" y="350" width="80" height="60" as="geometry" />
        </mxCell>
        <mxCell id="oJl91GnHJdicE9mI5OMN-89" style="rounded=0;orthogonalLoop=1;jettySize=auto;html=1;exitX=0.5;exitY=1;exitDx=0;exitDy=0;startArrow=classic;startFill=1;endArrow=none;endFill=0;entryX=0.5;entryY=0;entryDx=0;entryDy=0;" parent="1" source="t7DiXKhFXk8-TvQDCCYp-21" target="t7DiXKhFXk8-TvQDCCYp-18" edge="1">
          <mxGeometry relative="1" as="geometry">
            <mxPoint x="580" y="790" as="targetPoint" />
            <Array as="points" />
          </mxGeometry>
        </mxCell>
        <mxCell id="oJl91GnHJdicE9mI5OMN-96" style="rounded=0;orthogonalLoop=1;jettySize=auto;html=1;exitX=0.5;exitY=1;exitDx=0;exitDy=0;entryX=0.5;entryY=0;entryDx=0;entryDy=0;endArrow=none;endFill=0;" parent="1" source="t7DiXKhFXk8-TvQDCCYp-20" target="oJl91GnHJdicE9mI5OMN-77" edge="1">
          <mxGeometry relative="1" as="geometry">
            <mxPoint x="820" y="630" as="sourcePoint" />
          </mxGeometry>
        </mxCell>
        <mxCell id="oJl91GnHJdicE9mI5OMN-77" value="&lt;u&gt;Latin név&lt;/u&gt;" style="ellipse;whiteSpace=wrap;html=1;" parent="1" vertex="1">
          <mxGeometry x="600" y="720" width="80" height="60" as="geometry" />
        </mxCell>
        <mxCell id="oJl91GnHJdicE9mI5OMN-98" style="rounded=0;orthogonalLoop=1;jettySize=auto;html=1;exitX=0.5;exitY=0;exitDx=0;exitDy=0;entryX=0.5;entryY=1;entryDx=0;entryDy=0;endArrow=none;endFill=0;" parent="1" source="oJl91GnHJdicE9mI5OMN-79" target="t7DiXKhFXk8-TvQDCCYp-20" edge="1">
          <mxGeometry relative="1" as="geometry">
            <mxPoint x="880" y="660" as="targetPoint" />
          </mxGeometry>
        </mxCell>
        <mxCell id="oJl91GnHJdicE9mI5OMN-79" value="Gyógymód" style="ellipse;whiteSpace=wrap;html=1;" parent="1" vertex="1">
          <mxGeometry x="778.75" y="720" width="80" height="60" as="geometry" />
        </mxCell>
        <mxCell id="oJl91GnHJdicE9mI5OMN-97" style="rounded=0;orthogonalLoop=1;jettySize=auto;html=1;exitX=0.5;exitY=0;exitDx=0;exitDy=0;entryX=0.5;entryY=1;entryDx=0;entryDy=0;endArrow=none;endFill=0;startArrow=none;startFill=0;" parent="1" source="oJl91GnHJdicE9mI5OMN-80" target="t7DiXKhFXk8-TvQDCCYp-20" edge="1">
          <mxGeometry relative="1" as="geometry">
            <mxPoint x="820" y="630" as="targetPoint" />
          </mxGeometry>
        </mxCell>
        <mxCell id="oJl91GnHJdicE9mI5OMN-80" value="Név" style="ellipse;whiteSpace=wrap;html=1;" parent="1" vertex="1">
          <mxGeometry x="690" y="720" width="80" height="60" as="geometry" />
        </mxCell>
        <mxCell id="oJl91GnHJdicE9mI5OMN-99" style="rounded=0;orthogonalLoop=1;jettySize=auto;html=1;exitX=0.5;exitY=0;exitDx=0;exitDy=0;entryX=0.5;entryY=1;entryDx=0;entryDy=0;endArrow=none;endFill=0;" parent="1" source="oJl91GnHJdicE9mI5OMN-81" target="t7DiXKhFXk8-TvQDCCYp-20" edge="1">
          <mxGeometry relative="1" as="geometry">
            <mxPoint x="880" y="660" as="targetPoint" />
          </mxGeometry>
        </mxCell>
        <mxCell id="oJl91GnHJdicE9mI5OMN-81" value="Gyógyulási idő" style="ellipse;whiteSpace=wrap;html=1;" parent="1" vertex="1">
          <mxGeometry x="870" y="720" width="80" height="60" as="geometry" />
        </mxCell>
        <mxCell id="oJl91GnHJdicE9mI5OMN-100" style="rounded=0;orthogonalLoop=1;jettySize=auto;html=1;exitX=0.5;exitY=0;exitDx=0;exitDy=0;entryX=0.5;entryY=1;entryDx=0;entryDy=0;endArrow=none;endFill=0;" parent="1" source="6" target="t7DiXKhFXk8-TvQDCCYp-20" edge="1">
          <mxGeometry relative="1" as="geometry">
            <mxPoint x="880" y="660" as="targetPoint" />
            <mxPoint x="975" y="700" as="sourcePoint" />
          </mxGeometry>
        </mxCell>
        <mxCell id="oJl91GnHJdicE9mI5OMN-101" style="rounded=0;orthogonalLoop=1;jettySize=auto;html=1;exitX=0.5;exitY=1;exitDx=0;exitDy=0;entryX=0.5;entryY=0;entryDx=0;entryDy=0;endArrow=none;endFill=0;" parent="1" source="oJl91GnHJdicE9mI5OMN-85" target="t7DiXKhFXk8-TvQDCCYp-21" edge="1">
          <mxGeometry relative="1" as="geometry" />
        </mxCell>
        <mxCell id="oJl91GnHJdicE9mI5OMN-85" value="&lt;u&gt;Személyi szám&lt;/u&gt;" style="ellipse;whiteSpace=wrap;html=1;" parent="1" vertex="1">
          <mxGeometry x="600" y="-100" width="80" height="60" as="geometry" />
        </mxCell>
        <mxCell id="oJl91GnHJdicE9mI5OMN-102" style="rounded=0;orthogonalLoop=1;jettySize=auto;html=1;exitX=0.5;exitY=1;exitDx=0;exitDy=0;entryX=0.5;entryY=0;entryDx=0;entryDy=0;endArrow=none;endFill=0;startArrow=none;startFill=0;" parent="1" source="oJl91GnHJdicE9mI5OMN-86" target="t7DiXKhFXk8-TvQDCCYp-21" edge="1">
          <mxGeometry relative="1" as="geometry" />
        </mxCell>
        <mxCell id="oJl91GnHJdicE9mI5OMN-86" value="Név" style="ellipse;whiteSpace=wrap;html=1;" parent="1" vertex="1">
          <mxGeometry x="690" y="-100" width="80" height="60" as="geometry" />
        </mxCell>
        <mxCell id="oJl91GnHJdicE9mI5OMN-103" style="rounded=0;orthogonalLoop=1;jettySize=auto;html=1;exitX=0.5;exitY=1;exitDx=0;exitDy=0;entryX=0.5;entryY=0;entryDx=0;entryDy=0;endArrow=none;endFill=0;" parent="1" source="oJl91GnHJdicE9mI5OMN-87" target="t7DiXKhFXk8-TvQDCCYp-21" edge="1">
          <mxGeometry relative="1" as="geometry" />
        </mxCell>
        <mxCell id="oJl91GnHJdicE9mI5OMN-87" value="Szül. idő" style="ellipse;whiteSpace=wrap;html=1;" parent="1" vertex="1">
          <mxGeometry x="870" y="-100" width="80" height="60" as="geometry" />
        </mxCell>
        <mxCell id="36u0671AOfZQsiYe3x8z-5" style="rounded=0;orthogonalLoop=1;jettySize=auto;html=1;exitX=0.5;exitY=0;exitDx=0;exitDy=0;entryX=0.5;entryY=1;entryDx=0;entryDy=0;endArrow=none;endFill=0;" parent="1" source="2" target="t7DiXKhFXk8-TvQDCCYp-13" edge="1">
          <mxGeometry relative="1" as="geometry">
            <mxPoint x="586.25" y="360" as="sourcePoint" />
            <mxPoint x="480" y="350" as="targetPoint" />
          </mxGeometry>
        </mxCell>
        <mxCell id="36u0671AOfZQsiYe3x8z-14" style="rounded=0;orthogonalLoop=1;jettySize=auto;html=1;exitX=0.5;exitY=1;exitDx=0;exitDy=0;entryX=0.5;entryY=0;entryDx=0;entryDy=0;endArrow=none;endFill=0;" parent="1" source="36u0671AOfZQsiYe3x8z-6" target="t7DiXKhFXk8-TvQDCCYp-21" edge="1">
          <mxGeometry relative="1" as="geometry" />
        </mxCell>
        <mxCell id="36u0671AOfZQsiYe3x8z-6" value="Lakcím" style="ellipse;whiteSpace=wrap;html=1;" parent="1" vertex="1">
          <mxGeometry x="778.75" y="-100" width="80" height="60" as="geometry" />
        </mxCell>
        <mxCell id="36u0671AOfZQsiYe3x8z-7" value="Utca" style="ellipse;whiteSpace=wrap;html=1;" parent="1" vertex="1">
          <mxGeometry x="870" y="-220" width="80" height="60" as="geometry" />
        </mxCell>
        <mxCell id="36u0671AOfZQsiYe3x8z-8" value="Házszám" style="ellipse;whiteSpace=wrap;html=1;" parent="1" vertex="1">
          <mxGeometry x="778.75" y="-220" width="80" height="60" as="geometry" />
        </mxCell>
        <mxCell id="36u0671AOfZQsiYe3x8z-9" style="rounded=0;orthogonalLoop=1;jettySize=auto;html=1;entryX=0.5;entryY=1;entryDx=0;entryDy=0;endArrow=none;endFill=0;exitX=0.5;exitY=0;exitDx=0;exitDy=0;" parent="1" source="36u0671AOfZQsiYe3x8z-6" target="36u0671AOfZQsiYe3x8z-7" edge="1">
          <mxGeometry relative="1" as="geometry">
            <mxPoint x="809.5" y="6" as="sourcePoint" />
            <mxPoint x="937.5" y="45" as="targetPoint" />
          </mxGeometry>
        </mxCell>
        <mxCell id="36u0671AOfZQsiYe3x8z-10" style="rounded=0;orthogonalLoop=1;jettySize=auto;html=1;entryX=0.5;entryY=1;entryDx=0;entryDy=0;endArrow=none;endFill=0;exitX=0.5;exitY=0;exitDx=0;exitDy=0;" parent="1" source="36u0671AOfZQsiYe3x8z-6" target="36u0671AOfZQsiYe3x8z-8" edge="1">
          <mxGeometry relative="1" as="geometry">
            <mxPoint x="819.5" y="16" as="sourcePoint" />
            <mxPoint x="947.5" y="55" as="targetPoint" />
          </mxGeometry>
        </mxCell>
        <mxCell id="36u0671AOfZQsiYe3x8z-12" style="rounded=0;orthogonalLoop=1;jettySize=auto;html=1;entryX=0.5;entryY=0;entryDx=0;entryDy=0;endArrow=none;endFill=0;exitX=0.5;exitY=1;exitDx=0;exitDy=0;" parent="1" source="36u0671AOfZQsiYe3x8z-11" target="36u0671AOfZQsiYe3x8z-6" edge="1">
          <mxGeometry relative="1" as="geometry">
            <mxPoint x="782.5" y="35" as="sourcePoint" />
            <mxPoint x="907.5" y="15" as="targetPoint" />
          </mxGeometry>
        </mxCell>
        <mxCell id="2" value="Telefonszám" style="ellipse;shape=doubleEllipse;margin=3;whiteSpace=wrap;html=1;align=center;" parent="1" vertex="1">
          <mxGeometry x="560" y="440" width="80" height="60" as="geometry" />
        </mxCell>
        <mxCell id="t7DiXKhFXk8-TvQDCCYp-32" value="" style="rounded=0;orthogonalLoop=1;jettySize=auto;html=1;endArrow=none;endFill=0;exitX=1;exitY=0.5;exitDx=0;exitDy=0;entryX=0;entryY=0.5;entryDx=0;entryDy=0;" parent="1" source="4" target="t7DiXKhFXk8-TvQDCCYp-14" edge="1">
          <mxGeometry relative="1" as="geometry" />
        </mxCell>
        <mxCell id="4" value="Beosztás" style="ellipse;shape=doubleEllipse;margin=3;whiteSpace=wrap;html=1;align=center;" parent="1" vertex="1">
          <mxGeometry x="-200" y="100" width="80" height="61" as="geometry" />
        </mxCell>
        <mxCell id="6" value="Tünetek" style="ellipse;shape=doubleEllipse;margin=3;whiteSpace=wrap;html=1;align=center;" parent="1" vertex="1">
          <mxGeometry x="960" y="720" width="85" height="60" as="geometry" />
        </mxCell>
        <mxCell id="8" style="rounded=0;orthogonalLoop=1;jettySize=auto;html=1;exitX=0.5;exitY=1;exitDx=0;exitDy=0;entryX=0.5;entryY=0;entryDx=0;entryDy=0;endArrow=none;endFill=0;" parent="1" source="7" target="t7DiXKhFXk8-TvQDCCYp-21" edge="1">
          <mxGeometry relative="1" as="geometry">
            <mxPoint x="1045" y="-210" as="targetPoint" />
          </mxGeometry>
        </mxCell>
        <mxCell id="7" value="Telefonszám" style="ellipse;shape=doubleEllipse;margin=3;whiteSpace=wrap;html=1;align=center;" parent="1" vertex="1">
          <mxGeometry x="960" y="-100" width="80" height="60" as="geometry" />
        </mxCell>
        <mxCell id="t7DiXKhFXk8-TvQDCCYp-8" style="rounded=0;orthogonalLoop=1;jettySize=auto;html=1;entryX=0;entryY=0.5;entryDx=0;entryDy=0;endArrow=none;endFill=0;exitX=1;exitY=0.5;exitDx=0;exitDy=0;" parent="1" source="oJl91GnHJdicE9mI5OMN-35" target="t7DiXKhFXk8-TvQDCCYp-14" edge="1">
          <mxGeometry relative="1" as="geometry" />
        </mxCell>
        <mxCell id="t7DiXKhFXk8-TvQDCCYp-12" value="dolgozik" style="rhombus;whiteSpace=wrap;html=1;strokeColor=default;align=center;verticalAlign=middle;fontFamily=Helvetica;fontSize=12;fontColor=default;fillColor=default;" parent="1" vertex="1">
          <mxGeometry x="160" y="310" width="120" height="60" as="geometry" />
        </mxCell>
        <mxCell id="t7DiXKhFXk8-TvQDCCYp-13" value="Menhely" style="rounded=0;whiteSpace=wrap;html=1;strokeColor=default;align=center;verticalAlign=middle;fontFamily=Helvetica;fontSize=12;fontColor=default;fillColor=default;" parent="1" vertex="1">
          <mxGeometry x="360" y="320" width="120" height="40" as="geometry" />
        </mxCell>
        <mxCell id="t7DiXKhFXk8-TvQDCCYp-14" value="Dolgozó" style="rounded=0;whiteSpace=wrap;html=1;strokeColor=default;align=center;verticalAlign=middle;fontFamily=Helvetica;fontSize=12;fontColor=default;fillColor=default;" parent="1" vertex="1">
          <mxGeometry x="-40" y="320" width="120" height="40" as="geometry" />
        </mxCell>
        <mxCell id="t7DiXKhFXk8-TvQDCCYp-15" value="befogad" style="rhombus;whiteSpace=wrap;html=1;strokeColor=default;align=center;verticalAlign=middle;fontFamily=Helvetica;fontSize=12;fontColor=default;fillColor=default;" parent="1" vertex="1">
          <mxGeometry x="560" y="310" width="120" height="60" as="geometry" />
        </mxCell>
        <mxCell id="t7DiXKhFXk8-TvQDCCYp-16" value="Állat" style="rounded=0;whiteSpace=wrap;html=1;strokeColor=default;align=center;verticalAlign=middle;fontFamily=Helvetica;fontSize=12;fontColor=default;fillColor=default;" parent="1" vertex="1">
          <mxGeometry x="760" y="320" width="120" height="40" as="geometry" />
        </mxCell>
        <mxCell id="t7DiXKhFXk8-TvQDCCYp-18" value="örökbefogad" style="rhombus;whiteSpace=wrap;html=1;strokeColor=default;align=center;verticalAlign=middle;fontFamily=Helvetica;fontSize=12;fontColor=default;fillColor=default;" parent="1" vertex="1">
          <mxGeometry x="760" y="170" width="120" height="60" as="geometry" />
        </mxCell>
        <mxCell id="t7DiXKhFXk8-TvQDCCYp-19" value="" style="rounded=0;orthogonalLoop=1;jettySize=auto;html=1;exitX=0.5;exitY=1;exitDx=0;exitDy=0;entryX=0.5;entryY=0;entryDx=0;entryDy=0;endArrow=doubleBlock;endFill=1;" parent="1" target="t7DiXKhFXk8-TvQDCCYp-17" edge="1">
          <mxGeometry relative="1" as="geometry">
            <mxPoint x="819.9999999999995" y="485" as="sourcePoint" />
            <mxPoint x="880" y="600" as="targetPoint" />
          </mxGeometry>
        </mxCell>
        <mxCell id="t7DiXKhFXk8-TvQDCCYp-17" value="beteg" style="rhombus;whiteSpace=wrap;html=1;strokeColor=default;align=center;verticalAlign=middle;fontFamily=Helvetica;fontSize=12;fontColor=default;fillColor=default;" parent="1" vertex="1">
          <mxGeometry x="760" y="450" width="120" height="60" as="geometry" />
        </mxCell>
        <mxCell id="t7DiXKhFXk8-TvQDCCYp-20" value="Betegség" style="rounded=0;whiteSpace=wrap;html=1;strokeColor=default;align=center;verticalAlign=middle;fontFamily=Helvetica;fontSize=12;fontColor=default;fillColor=default;" parent="1" vertex="1">
          <mxGeometry x="758.75" y="600" width="120" height="40" as="geometry" />
        </mxCell>
        <mxCell id="t7DiXKhFXk8-TvQDCCYp-21" value="Örökbefogadó" style="rounded=0;whiteSpace=wrap;html=1;strokeColor=default;align=center;verticalAlign=middle;fontFamily=Helvetica;fontSize=12;fontColor=default;fillColor=default;" parent="1" vertex="1">
          <mxGeometry x="760" y="40" width="120" height="40" as="geometry" />
        </mxCell>
        <mxCell id="36u0671AOfZQsiYe3x8z-11" value="&lt;u&gt;Irányító szám&lt;/u&gt;" style="ellipse;whiteSpace=wrap;html=1;" parent="1" vertex="1">
          <mxGeometry x="690" y="-220" width="80" height="60" as="geometry" />
        </mxCell>
        <mxCell id="t7DiXKhFXk8-TvQDCCYp-24" value="" style="endArrow=doubleBlock;html=1;rounded=0;entryX=0;entryY=0.5;entryDx=0;entryDy=0;exitX=1;exitY=0.5;exitDx=0;exitDy=0;endFill=1;" parent="1" source="t7DiXKhFXk8-TvQDCCYp-15" target="t7DiXKhFXk8-TvQDCCYp-16" edge="1">
          <mxGeometry width="50" height="50" relative="1" as="geometry">
            <mxPoint x="830" y="460" as="sourcePoint" />
            <mxPoint x="830" y="370" as="targetPoint" />
          </mxGeometry>
        </mxCell>
        <mxCell id="t7DiXKhFXk8-TvQDCCYp-25" value="" style="endArrow=doubleBlock;html=1;rounded=0;entryX=1;entryY=0.5;entryDx=0;entryDy=0;exitX=0;exitY=0.5;exitDx=0;exitDy=0;endFill=1;" parent="1" source="t7DiXKhFXk8-TvQDCCYp-15" target="t7DiXKhFXk8-TvQDCCYp-13" edge="1">
          <mxGeometry width="50" height="50" relative="1" as="geometry">
            <mxPoint x="840" y="470" as="sourcePoint" />
            <mxPoint x="840" y="380" as="targetPoint" />
          </mxGeometry>
        </mxCell>
        <mxCell id="t7DiXKhFXk8-TvQDCCYp-26" value="" style="endArrow=doubleBlock;html=1;rounded=0;entryX=1;entryY=0.5;entryDx=0;entryDy=0;exitX=0;exitY=0.5;exitDx=0;exitDy=0;endFill=1;" parent="1" source="t7DiXKhFXk8-TvQDCCYp-12" target="t7DiXKhFXk8-TvQDCCYp-14" edge="1">
          <mxGeometry width="50" height="50" relative="1" as="geometry">
            <mxPoint x="850" y="480" as="sourcePoint" />
            <mxPoint x="850" y="390" as="targetPoint" />
          </mxGeometry>
        </mxCell>
        <mxCell id="t7DiXKhFXk8-TvQDCCYp-27" value="" style="endArrow=classic;html=1;rounded=0;exitX=1;exitY=0.5;exitDx=0;exitDy=0;entryX=0;entryY=0.5;entryDx=0;entryDy=0;" parent="1" source="t7DiXKhFXk8-TvQDCCYp-12" target="t7DiXKhFXk8-TvQDCCYp-13" edge="1">
          <mxGeometry width="50" height="50" relative="1" as="geometry">
            <mxPoint x="430" y="240" as="sourcePoint" />
            <mxPoint x="430" y="330" as="targetPoint" />
          </mxGeometry>
        </mxCell>
        <mxCell id="t7DiXKhFXk8-TvQDCCYp-30" style="rounded=0;orthogonalLoop=1;jettySize=auto;html=1;exitX=0.5;exitY=0;exitDx=0;exitDy=0;entryX=0.5;entryY=1;entryDx=0;entryDy=0;endArrow=none;endFill=0;" parent="1" source="oJl91GnHJdicE9mI5OMN-40" target="oJl91GnHJdicE9mI5OMN-39" edge="1">
          <mxGeometry relative="1" as="geometry">
            <mxPoint x="370" y="570" as="sourcePoint" />
            <mxPoint x="430" y="530" as="targetPoint" />
          </mxGeometry>
        </mxCell>
        <mxCell id="t7DiXKhFXk8-TvQDCCYp-31" style="rounded=0;orthogonalLoop=1;jettySize=auto;html=1;exitX=0.5;exitY=0;exitDx=0;exitDy=0;entryX=0.5;entryY=1;entryDx=0;entryDy=0;endArrow=none;endFill=0;" parent="1" source="oJl91GnHJdicE9mI5OMN-41" target="oJl91GnHJdicE9mI5OMN-39" edge="1">
          <mxGeometry relative="1" as="geometry">
            <mxPoint x="380" y="580" as="sourcePoint" />
            <mxPoint x="440" y="540" as="targetPoint" />
          </mxGeometry>
        </mxCell>
        <mxCell id="t7DiXKhFXk8-TvQDCCYp-33" style="rounded=0;orthogonalLoop=1;jettySize=auto;html=1;entryX=0;entryY=0.5;entryDx=0;entryDy=0;endArrow=none;endFill=0;exitX=1;exitY=0.5;exitDx=0;exitDy=0;" parent="1" source="oJl91GnHJdicE9mI5OMN-45" target="t7DiXKhFXk8-TvQDCCYp-14" edge="1">
          <mxGeometry relative="1" as="geometry">
            <mxPoint x="30" y="230" as="sourcePoint" />
            <mxPoint x="30" y="330" as="targetPoint" />
          </mxGeometry>
        </mxCell>
        <mxCell id="t7DiXKhFXk8-TvQDCCYp-34" style="rounded=0;orthogonalLoop=1;jettySize=auto;html=1;entryX=0;entryY=0.5;entryDx=0;entryDy=0;endArrow=none;endFill=0;exitX=1;exitY=0.5;exitDx=0;exitDy=0;" parent="1" source="oJl91GnHJdicE9mI5OMN-46" target="t7DiXKhFXk8-TvQDCCYp-14" edge="1">
          <mxGeometry relative="1" as="geometry">
            <mxPoint x="30" y="230" as="sourcePoint" />
            <mxPoint x="30" y="330" as="targetPoint" />
          </mxGeometry>
        </mxCell>
        <mxCell id="t7DiXKhFXk8-TvQDCCYp-35" style="rounded=0;orthogonalLoop=1;jettySize=auto;html=1;entryX=0;entryY=0.5;entryDx=0;entryDy=0;endArrow=none;endFill=0;exitX=1;exitY=0.5;exitDx=0;exitDy=0;" parent="1" source="oJl91GnHJdicE9mI5OMN-36" target="t7DiXKhFXk8-TvQDCCYp-14" edge="1">
          <mxGeometry relative="1" as="geometry">
            <mxPoint x="40" y="240" as="sourcePoint" />
            <mxPoint x="40" y="340" as="targetPoint" />
          </mxGeometry>
        </mxCell>
        <mxCell id="t7DiXKhFXk8-TvQDCCYp-36" style="rounded=0;orthogonalLoop=1;jettySize=auto;html=1;entryX=0;entryY=0.5;entryDx=0;entryDy=0;endArrow=none;endFill=0;exitX=1;exitY=0.5;exitDx=0;exitDy=0;" parent="1" source="oJl91GnHJdicE9mI5OMN-68" target="t7DiXKhFXk8-TvQDCCYp-14" edge="1">
          <mxGeometry relative="1" as="geometry">
            <mxPoint x="50" y="250" as="sourcePoint" />
            <mxPoint x="50" y="350" as="targetPoint" />
          </mxGeometry>
        </mxCell>
        <mxCell id="t7DiXKhFXk8-TvQDCCYp-37" value="Telefonszám" style="ellipse;shape=doubleEllipse;margin=3;whiteSpace=wrap;html=1;align=center;" parent="1" vertex="1">
          <mxGeometry x="-200" y="380" width="80" height="60" as="geometry" />
        </mxCell>
        <mxCell id="t7DiXKhFXk8-TvQDCCYp-38" style="rounded=0;orthogonalLoop=1;jettySize=auto;html=1;entryX=0;entryY=0.5;entryDx=0;entryDy=0;endArrow=none;endFill=0;exitX=1;exitY=0.5;exitDx=0;exitDy=0;" parent="1" source="t7DiXKhFXk8-TvQDCCYp-37" target="t7DiXKhFXk8-TvQDCCYp-14" edge="1">
          <mxGeometry relative="1" as="geometry">
            <mxPoint x="-70" y="315" as="sourcePoint" />
            <mxPoint x="-30" y="350" as="targetPoint" />
          </mxGeometry>
        </mxCell>
      </root>
    </mxGraphModel>
  </diagram>
</mxfile>
